# xmcd
#
# Track frame offsets:
#	150
#	9795
#	20258
#	30462
#	39307
#	45515
#	56942
#	66453
#	79336
#	91384
#	103305
#	113066
#	123194
#	129885
#	141683
#	152952
#	164195
#	174121
#	184636
#	194174
#	203130
#	210659
#	222117
#	233007
#
# Disc length: 3201 seconds
#
# Revision: 1
# Processed by: cddbd v1.5.2PL0 Copyright (c) Steve Scherf et al.
# Submitted via: audiograbber 1.83.01
#
DISCID=540c7f18
DTITLE=Various Artist - Second Generation Bluegrass
DYEAR=1900
DGENRE=Bluegrass
TTITLE0=The Dillards - Dooley
TTITLE1=Ricky Skaggs and Keith Whitley (with Ralph Stanley) - Gathering Flowers F
TTITLE1=or The Master's Bouquet 
TTITLE2=The Country Gentlemen - Poor Ellen Smith
TTITLE3=Buzz Busby - Me And The Juke Box 
TTITLE4=Bill Emerson - Banjo Whiz
TTITLE5=Bill Harrell - I'll Never See You Anymor
TTITLE6=The Dillards - Old Man At The Mill
TTITLE7=Ricky Skaggs and Keith Whitley (with Ralph Stanley) - Rock Bottom
TTITLE8=Buzz Busby - Lonesome Wind
TTITLE9=The Country Gentlemen - Rollin' Stone
TTITLE10=The Kentucky Travelers - When You're Out Of My Arms
TTITLE11=Bill Browning - Country Strings
TTITLE12=The Dillards - Flint Hill Special
TTITLE13=Ricky Skaggs and Keith Whitley (with Ralph Stanley) - My Main Train Is Y
TTITLE13=et To Come
TTITLE14=Bill Harrell - One Track Mind
TTITLE15=The Country Gentlemen - High Lonesome
TTITLE16=Bill Clifton - Bury Me Beneath The Willow
TTITLE17=Buzz Busby - Where Will This End
TTITLE18=The Kentucky Travelers - Will There Be A Rainbow
TTITLE19=Ricky Skaggs and Keith Whitley (with Ralph Stanley) - Take Me Back
TTITLE20=Buzz Busby - Talking Banjo
TTITLE21=Bill Harrell - Tragic Highway
TTITLE22=The Country Gentlemen - The Hills And Home
TTITLE23=The Dillards - Shady Grove
EXTD=CD3 der Compilation "Bluegrass from Roots to Branches"
EXTT0=
EXTT1=
EXTT2=
EXTT3=
EXTT4=
EXTT5=
EXTT6=
EXTT7=
EXTT8=
EXTT9=
EXTT10=
EXTT11=
EXTT12=
EXTT13=
EXTT14=
EXTT15=
EXTT16=
EXTT17=
EXTT18=
EXTT19=
EXTT20=
EXTT21=
EXTT22=
EXTT23=
PLAYORDER=
